<svg xmlns="http://www.w3.org/2000/svg" width="27.977" height="27.977" viewBox="0 0 27.977 27.977">
  <g id="cricket" transform="translate(-0.001 -0.025)">
    <path id="Path_2352" data-name="Path 2352" d="M23.511,3.767A13.987,13.987,0,0,0,3.743,23.535Zm-16.38,15.2-.844.844a.513.513,0,0,1-.725-.725l.844-.844a.513.513,0,0,1,.725.725Zm2.11-2.11-.844.844a.513.513,0,0,1-.725-.725l.844-.844a.513.513,0,0,1,.725.725Zm2.11-2.11-.844.844a.513.513,0,1,1-.725-.725l.844-.844a.513.513,0,0,1,.725.725Zm2.11-2.11-.844.844a.513.513,0,1,1-.725-.725l.844-.844a.513.513,0,0,1,.725.725Zm2.11-2.11-.844.844A.513.513,0,0,1,14,10.65l.844-.844a.513.513,0,1,1,.725.725Zm2.11-2.11-.844.844a.513.513,0,0,1-.725-.725l.844-.844a.513.513,0,0,1,.725.725Zm2.11-2.11-.844.844a.513.513,0,0,1-.725-.725l.844-.844a.513.513,0,0,1,.725.725Zm2.063-2.788a.512.512,0,0,1,0,.725l-.844.844a.513.513,0,1,1-.725-.725l.844-.844A.512.512,0,0,1,21.854,3.524ZM19.02,3.1l.844-.844a.513.513,0,0,1,.725.725l-.844.844a.513.513,0,0,1-.725-.725ZM16.957,5.165l.844-.844a.513.513,0,1,1,.725.725l-.844.844a.513.513,0,1,1-.725-.725Zm-2.11,2.11.844-.844a.513.513,0,0,1,.725.725L15.571,8a.513.513,0,0,1-.725-.725Zm-2.11,2.11.844-.844a.513.513,0,0,1,.725.725l-.844.844a.513.513,0,0,1-.725-.725Zm-2.11,2.11.844-.844a.513.513,0,0,1,.725.725l-.844.844a.513.513,0,0,1-.725-.725ZM8.516,13.6l.844-.844a.513.513,0,0,1,.725.725l-.844.844a.513.513,0,1,1-.725-.725Zm-2.11,2.11.844-.844a.513.513,0,0,1,.725.725l-.844.844a.513.513,0,0,1-.725-.725ZM4.3,17.824l.844-.844a.513.513,0,0,1,.725.725l-.844.844a.513.513,0,0,1-.725-.725ZM2.6,20.763a.513.513,0,0,1-.363-.875l.844-.844a.513.513,0,0,1,.725.725l-.844.844a.512.512,0,0,1-.362.15Zm.9.391.844-.844a.513.513,0,1,1,.725.725l-.844.844a.513.513,0,0,1-.725-.725Zm0,0" transform="translate(0 0)" fill="#fff"/>
    <path id="Path_2353" data-name="Path 2353" d="M61,80.792A13.987,13.987,0,0,0,80.772,61.023Zm16.38-15.2.844-.844a.513.513,0,0,1,.725.725l-.844.844a.513.513,0,0,1-.725-.725Zm-2.11,2.11.844-.844a.513.513,0,0,1,.725.725L76,68.422a.513.513,0,0,1-.725-.725Zm-2.11,2.11.844-.844a.513.513,0,1,1,.725.725l-.844.844a.513.513,0,0,1-.725-.725Zm-2.11,2.11.844-.844a.513.513,0,0,1,.725.725l-.844.844a.513.513,0,0,1-.725-.725Zm-2.11,2.11.844-.844a.513.513,0,1,1,.725.725l-.844.844a.513.513,0,0,1-.725-.725Zm-2.11,2.11.844-.844a.513.513,0,0,1,.725.725l-.844.844a.513.513,0,0,1-.725-.725Zm-2.11,2.11.844-.844a.513.513,0,0,1,.725.725l-.844.844a.513.513,0,0,1-.725-.725Zm-1.7,2.938a.513.513,0,0,1-.363-.875l.844-.844a.513.513,0,0,1,.725.725l-.844.844A.512.512,0,0,1,63.023,81.186Zm2.472.272-.844.844a.513.513,0,1,1-.725-.725l.844-.844a.513.513,0,1,1,.725.725Zm2.063-2.063-.844.844a.513.513,0,0,1-.725-.725l.844-.844a.513.513,0,1,1,.725.725Zm2.11-2.11-.844.844A.513.513,0,0,1,68.1,77.4l.844-.844a.513.513,0,0,1,.725.725Zm2.11-2.11-.844.844a.513.513,0,0,1-.725-.725l.844-.844a.513.513,0,0,1,.725.725Zm2.11-2.11-.844.844a.513.513,0,0,1-.725-.725l.844-.844a.513.513,0,0,1,.725.725ZM76,70.954l-.844.844a.513.513,0,0,1-.725-.725l.844-.844a.513.513,0,0,1,.725.725Zm2.11-2.11-.844.844a.513.513,0,0,1-.725-.725l.844-.844a.513.513,0,0,1,.725.725Zm2.11-2.11-.844.844a.513.513,0,0,1-.725-.725l.844-.844a.513.513,0,1,1,.725.725Zm2.063-2.788a.512.512,0,0,1,0,.725l-.844.844a.513.513,0,0,1-.725-.725l.844-.844A.512.512,0,0,1,82.282,63.947Zm-1.266-.541-.844.844a.513.513,0,0,1-.725-.725l.844-.844a.513.513,0,1,1,.725.725Zm0,0" transform="translate(-56.536 -56.531)" fill="#fff"/>
  </g>
</svg>
