<svg xmlns="http://www.w3.org/2000/svg" width="17.939" height="19.932" viewBox="0 0 17.939 19.932">
  <g id="event" transform="translate(-21.333)">
    <g id="Group_2485" data-name="Group 2485" transform="translate(21.333)">
      <g id="Group_2484" data-name="Group 2484">
        <path id="Path_2379" data-name="Path 2379" d="M37.279,1.993h-1V0H34.289V1.993H26.316V0H24.323V1.993h-1a1.984,1.984,0,0,0-1.983,1.993l-.01,13.953a1.993,1.993,0,0,0,1.993,1.993H37.279a1.993,1.993,0,0,0,1.993-1.993V3.986A1.993,1.993,0,0,0,37.279,1.993Zm0,15.946H23.326V6.976H37.279Z" transform="translate(-21.333)" fill="#fff"/>
        <path id="Path_2380" data-name="Path 2380" d="M124.5,193.056,123.446,192l-4.864,4.864-2.113-2.113-1.056,1.056,3.169,3.169Z" transform="translate(-111.018 -183.03)" fill="#0c8281"/>
      </g>
    </g>
  </g>
</svg>
