<svg xmlns="http://www.w3.org/2000/svg" xmlns:xlink="http://www.w3.org/1999/xlink" width="33.831" height="33.83" viewBox="0 0 33.831 33.83">
  <defs>
    <linearGradient id="linear-gradient" x1="0.5" x2="0.5" y2="1" gradientUnits="objectBoundingBox">
      <stop offset="0" stop-color="#3ac4c3"/>
      <stop offset="1" stop-color="#009595"/>
    </linearGradient>
    <filter id="Path_2351" x="0" y="0" width="33.831" height="33.83" filterUnits="userSpaceOnUse">
      <feOffset dy="1" input="SourceAlpha"/>
      <feGaussianBlur stdDeviation="0.5" result="blur"/>
      <feFlood flood-opacity="0.161"/>
      <feComposite operator="in" in2="blur"/>
      <feComposite in="SourceGraphic"/>
    </filter>
  </defs>
  <g id="soccer-ball-variant" transform="translate(1.5 0.5)">
    <g transform="matrix(1, 0, 0, 1, -1.5, -0.5)" filter="url(#Path_2351)">
      <path id="Path_2351-2" data-name="Path 2351" d="M9.615,1.128a15.411,15.411,0,0,0-5.1,25.187,15.4,15.4,0,0,0,21.8,0,15.4,15.4,0,0,0,0-21.8,15.437,15.437,0,0,0-16.7-3.386ZM3.853,21.9A10.581,10.581,0,0,1,1.82,20.27a14.533,14.533,0,0,1-.469-8.1,12.947,12.947,0,0,1,.987-1.638c.115-.161.221-.33.343-.486l3.479,2.058v.087a26.8,26.8,0,0,0,.559,5.559c0,.009,0,.013,0,.021L4.027,22C3.968,21.973,3.909,21.941,3.853,21.9ZM14.2,29.056a13.245,13.245,0,0,0,1.852.775,14.457,14.457,0,0,1-7.821-1.894l5.832,1.039C14.1,29,14.149,29.032,14.2,29.056ZM14.175,28,7.293,26.777A21.49,21.49,0,0,1,5.141,23.66c-.158-.281-.335-.554-.469-.848l2.7-4.226c.06.015.126.031.2.051A44.728,44.728,0,0,0,12.7,19.66c.1.014.185.026.257.034l3.231,5.586q-.841,1.182-1.707,2.347C14.384,27.756,14.281,27.88,14.175,28Zm11.449-2.38a14.339,14.339,0,0,1-1.738,1.483,13.211,13.211,0,0,0-.521-2.37l3.447-6.431a16.1,16.1,0,0,0,2.716-1.531,1.215,1.215,0,0,0,.275-.263A14.365,14.365,0,0,1,25.624,25.624Zm-.153-8.34c.128.245.255.492.382.742l-3.33,6.211c-.019,0-.037.009-.057.011a30.371,30.371,0,0,1-5.444.524L13.7,19.026q.776-1.44,1.538-2.889c.345-.654.684-1.313,1.023-1.971l6.877-.706A38.39,38.39,0,0,1,25.471,17.284Zm-1.4-7.367c-.326.862-.676,1.715-1.023,2.569l-6.7.688c-.08-.106-.163-.21-.25-.309q-1.187-1.344-2.382-2.679l.022-.024L12.78,9.2l1.865-5.615a2.616,2.616,0,0,1,.389-.077c1.014-.1,2.029-.22,3.046-.279a14.813,14.813,0,0,1,1.881-.01l4.615,5.2C24.416,8.922,24.261,9.425,24.076,9.916Zm1.548-4.71a14.374,14.374,0,0,1,2.956,4.28,14.654,14.654,0,0,0-2.753-1.48c-.151-.062-.305-.117-.463-.171L20.822,2.716a6,6,0,0,0,.055-.666A14.369,14.369,0,0,1,25.624,5.206ZM10.792,1.782c.018.013.026.024.037.027A11.545,11.545,0,0,1,13.7,3.322L11.96,8.57l-.026.009c-.357.147-.72.279-1.071.439a30.717,30.717,0,0,0-4.185,2.258L3.24,9.242a1.039,1.039,0,0,1,.06-.314c.231-.615.458-1.234.719-1.837A13.771,13.771,0,0,1,4.7,5.74c.164-.181.333-.36.508-.534a14.352,14.352,0,0,1,5.617-3.477C10.814,1.746,10.8,1.763,10.792,1.782Z" transform="translate(1.5 0.5)" fill="url(#linear-gradient)"/>
    </g>
  </g>
</svg>
