<svg id="football" xmlns="http://www.w3.org/2000/svg" width="27.583" height="27.583" viewBox="0 0 27.583 27.583">
  <path id="Path_2351" data-name="Path 2351" d="M8.6,1.009A13.788,13.788,0,0,0,4.04,23.543a13.781,13.781,0,0,0,19.5,0,13.781,13.781,0,0,0,0-19.5A13.811,13.811,0,0,0,8.6,1.009ZM3.447,19.6a9.467,9.467,0,0,1-1.818-1.463,13,13,0,0,1-.42-7.245,11.583,11.583,0,0,1,.883-1.465c.1-.144.2-.295.307-.435L5.512,10.83v.078a23.975,23.975,0,0,0,.5,4.973c0,.008,0,.012,0,.019L3.6,19.685C3.55,19.659,3.5,19.63,3.447,19.6ZM12.7,26a11.85,11.85,0,0,0,1.657.694,12.934,12.934,0,0,1-7-1.695l5.217.93C12.617,25.95,12.658,25.974,12.7,26Zm-.019-.942-6.157-1.1A19.226,19.226,0,0,1,4.6,21.167c-.142-.252-.3-.5-.42-.758l2.411-3.781.18.045a40.016,40.016,0,0,0,4.59.915c.09.013.166.024.23.03l2.891,5q-.752,1.058-1.527,2.1C12.869,24.833,12.777,24.944,12.682,25.054Zm10.243-2.129a12.829,12.829,0,0,1-1.555,1.327,11.819,11.819,0,0,0-.466-2.12l3.084-5.754a14.407,14.407,0,0,0,2.43-1.369,1.087,1.087,0,0,0,.246-.236A12.852,12.852,0,0,1,22.925,22.925Zm-.137-7.462c.115.219.228.44.341.664l-2.979,5.557c-.017,0-.034.008-.051.01a27.172,27.172,0,0,1-4.871.468l-2.973-5.14q.694-1.289,1.376-2.584c.309-.585.612-1.175.915-1.764l6.153-.632A34.346,34.346,0,0,1,22.788,15.463ZM21.54,8.872c-.292.771-.6,1.534-.915,2.3l-5.994.616c-.072-.095-.146-.188-.224-.276q-1.062-1.2-2.131-2.4l.019-.021-.862-.861L13.1,3.207a2.34,2.34,0,0,1,.348-.069c.907-.092,1.815-.2,2.725-.249a13.253,13.253,0,0,1,1.683-.009l4.128,4.653C21.844,7.982,21.706,8.432,21.54,8.872Zm1.385-4.214A12.86,12.86,0,0,1,25.57,8.487a13.111,13.111,0,0,0-2.463-1.324c-.135-.056-.273-.1-.414-.153L18.629,2.43a5.372,5.372,0,0,0,.049-.6A12.855,12.855,0,0,1,22.925,4.658ZM9.656,1.594c.016.012.024.022.033.024a10.329,10.329,0,0,1,2.57,1.354L10.7,7.667l-.023.008c-.319.132-.644.25-.958.393a27.481,27.481,0,0,0-3.744,2.02L2.9,8.268a.93.93,0,0,1,.054-.281c.207-.55.41-1.1.643-1.643A12.321,12.321,0,0,1,4.2,5.136c.146-.162.3-.322.454-.478A12.84,12.84,0,0,1,9.684,1.547C9.675,1.562,9.665,1.578,9.656,1.594Z" fill="#fff"/>
</svg>
