<svg id="live" xmlns="http://www.w3.org/2000/svg" width="22.998" height="22.998" viewBox="0 0 22.998 22.998">
  <g id="Group_2471" data-name="Group 2471" transform="translate(0 10.78)">
    <g id="Group_2470" data-name="Group 2470">
      <path id="Path_2372" data-name="Path 2372" d="M20.977,240H2.021A2.025,2.025,0,0,0,0,242.021V250.2a2.024,2.024,0,0,0,2.021,2.021H20.977A2.024,2.024,0,0,0,23,250.2v-8.175A2.025,2.025,0,0,0,20.977,240ZM6.064,249.523h-2.7a.673.673,0,0,1-.674-.674v-5.39a.674.674,0,0,1,1.348,0v4.716H6.064A.674.674,0,0,1,6.064,249.523Zm3.459-.674a.674.674,0,0,1-1.348,0v-5.39a.674.674,0,0,1,1.348,0Zm5.37-5.227-1.348,5.39a.674.674,0,0,1-1.307,0l-1.348-5.39A.673.673,0,0,1,12.2,243.3l.694,2.775.694-2.775A.673.673,0,0,1,14.893,243.622Zm4.737,1.858a.674.674,0,0,1,0,1.348H17.608v1.348h2.021a.674.674,0,0,1,0,1.348h-2.7a.673.673,0,0,1-.674-.674v-5.39a.673.673,0,0,1,.674-.674h2.7a.674.674,0,0,1,0,1.348H17.608v1.348Z" transform="translate(0 -240)" fill="#0c8281"/>
    </g>
  </g>
  <g id="Group_2473" data-name="Group 2473" transform="translate(4.831 3.126)">
    <g id="Group_2472" data-name="Group 2472">
      <path id="Path_2373" data-name="Path 2373" d="M107.549,70.349,113.1,75.9h2.227l2.729-2.729C114.467,69.859,109.975,68.681,107.549,70.349Z" transform="translate(-107.549 -69.597)" fill="#ffd400"/>
    </g>
  </g>
  <g id="Group_2475" data-name="Group 2475" transform="translate(3.137 4.835)">
    <g id="Group_2474" data-name="Group 2474">
      <path id="Path_2374" data-name="Path 2374" d="M70.591,107.629a5.658,5.658,0,0,0-.492,4.6H75.19Z" transform="translate(-69.847 -107.629)" fill="#ffd400"/>
    </g>
  </g>
  <g id="Group_2477" data-name="Group 2477" transform="translate(3.855)">
    <g id="Group_2476" data-name="Group 2476">
      <path id="Path_2375" data-name="Path 2375" d="M93.414,0a11.361,11.361,0,0,0-7.6,2.9l.014.014C88.753.709,94.1,1.906,98.252,5.753L101.1,2.9A11.589,11.589,0,0,0,93.414,0Z" transform="translate(-85.814 0)" fill="#ffd400"/>
    </g>
  </g>
  <g id="Group_2479" data-name="Group 2479" transform="translate(17.24 3.871)">
    <g id="Group_2478" data-name="Group 2478">
      <path id="Path_2376" data-name="Path 2376" d="M386.654,86.188l-2.839,2.839a17.481,17.481,0,0,1,2.065,2.722h1.672a3.344,3.344,0,0,1,1.923.61A11.382,11.382,0,0,0,386.654,86.188Z" transform="translate(-383.815 -86.188)" fill="#ffd400"/>
    </g>
  </g>
  <g id="Group_2481" data-name="Group 2481" transform="translate(0.098 3.871)">
    <g id="Group_2480" data-name="Group 2480">
      <path id="Path_2377" data-name="Path 2377" d="M5.019,86.195l-.007-.007a11.382,11.382,0,0,0-2.82,6.171A3.345,3.345,0,0,1,4.1,91.751,6.692,6.692,0,0,1,5.019,86.195Z" transform="translate(-2.192 -86.188)" fill="#ffd400"/>
    </g>
  </g>
  <g id="Group_2483" data-name="Group 2483" transform="translate(14.518 7.663)">
    <g id="Group_2482" data-name="Group 2482">
      <path id="Path_2378" data-name="Path 2378" d="M324.981,170.6l-1.77,1.77H326.4A16.6,16.6,0,0,0,324.981,170.6Z" transform="translate(-323.211 -170.603)" fill="#ffd400"/>
    </g>
  </g>
</svg>
