<svg id="tennis_ball_white" xmlns="http://www.w3.org/2000/svg" width="27.977" height="27.977" viewBox="0 0 27.977 27.977">
  <g id="Group_2453" data-name="Group 2453">
    <g id="Group_2452" data-name="Group 2452">
      <path id="Path_2354" data-name="Path 2354" d="M5.7,15.606a8.226,8.226,0,0,0,3.037,6.156,8.618,8.618,0,0,0,6.906,1.745,8.6,8.6,0,0,0,4.217-2.185,15.762,15.762,0,0,0,2.126-2.359,8.671,8.671,0,0,0,1.208-8.334,8.155,8.155,0,0,0-7.38-5.114A11.6,11.6,0,0,1,9.157,3.484,14.088,14.088,0,0,0,3.5,9.136,10.432,10.432,0,0,1,5.7,15.606Z" transform="translate(-1.811 -1.803)" fill="#fff"/>
      <path id="Path_2355" data-name="Path 2355" d="M13.989,0A13.9,13.9,0,0,0,8.345,1.193a10.635,10.635,0,0,0,5.621,1.554l.027,0h.026a9.1,9.1,0,0,1,8.258,5.713,9.64,9.64,0,0,1-1.322,9.271,16.764,16.764,0,0,1-2.257,2.5,9.562,9.562,0,0,1-4.7,2.42,9.77,9.77,0,0,1-1.7.149,9.533,9.533,0,0,1-5.981-2.092,9.182,9.182,0,0,1-3.4-6.894v-.053A9.414,9.414,0,0,0,1.212,8.3,13.986,13.986,0,1,0,13.989,0Z" fill="#fff"/>
    </g>
  </g>
</svg>
